# xmcd
#
# Track frame offsets:
#	150
#	14390
#	29260
#	43803
#	58740
#	65623
#	76075
#	95660
#	106128
#	118893
#	129778
#	144595
#	161150
#
# Disc length: 2273 seconds
#
# Revision: 2
# Processed by: cddbd v1.4PL0 Copyright (c) Steve Scherf et al.
# Submitted via: audiograbber 1.81.03
#
DISCID=af08df0d
DTITLE=Steve James - Two Track Mind
DYEAR=1993
DGENRE=Blues
TTITLE0=Milwaukee Blues
TTITLE1=Rocks And Gravel
TTITLE2=Guitar Rag
TTITLE3=Frankie And Albert
TTITLE4=Huggin' And Chalkin'
TTITLE5=Amos Johnson Rag
TTITLE6=Bachelor Blues
TTITLE7=Railroad Blues
TTITLE8=Blues In The Bottle
TTITLE9=Variations On The Saturday Night Rub
TTITLE10=Don't Seem Right
TTITLE11=County Line Road
TTITLE12=Spanish Fandango
EXTD=
EXTT0=
EXTT1=
EXTT2=
EXTT3=
EXTT4=
EXTT5=
EXTT6=
EXTT7=
EXTT8=
EXTT9=
EXTT10=
EXTT11=
EXTT12=
PLAYORDER=
